<?xml version="1.0" encoding="UTF-8"?>
<svg id="Calque_1" xmlns="http://www.w3.org/2000/svg" version="1.1" viewBox="0 0 168.07 168.07">
  <!-- Generator: Adobe Illustrator 30.1.0, SVG Export Plug-In . SVG Version: 2.1.1 Build 136)  -->
  <defs>
    <style>
      .st0 {
        fill: #780000;
      }

      .st1 {
        fill: #fff;
        stroke: #edede9;
        stroke-miterlimit: 10;
        stroke-width: 10px;
      }

      .st2 {
        fill: #edede9;
      }
    </style>
  </defs>
  <g>
    <path class="st0" d="M84.04,163.57c-43.86,0-79.54-35.68-79.54-79.54S40.18,4.5,84.04,4.5s79.54,35.68,79.54,79.54-35.68,79.54-79.54,79.54Z"/>
    <path class="st2" d="M84.04,9c41.38,0,75.04,33.66,75.04,75.04s-33.66,75.04-75.04,75.04S9,125.41,9,84.04,42.66,9,84.04,9M84.04,0C37.62,0,0,37.62,0,84.04s37.62,84.04,84.04,84.04,84.04-37.62,84.04-84.04S130.45,0,84.04,0h0Z"/>
  </g>
  <line class="st1" x1="53.63" y1="46.66" x2="114.44" y2="121.41"/>
  <line class="st1" x1="112.95" y1="45.47" x2="55.13" y2="122.6"/>
</svg>